# xmcd
#
# Track frame offsets:
#	150
#	25002
#	44097
#	61967
#	80920
#	102162
#	121775
#	144125
#	165172
#	184977
#
# Disc length: 2780 seconds
#
# Revision: 0
# Processed by: cddbd v1.5.2PL0 Copyright (c) Steve Scherf et al.
# Submitted via: EasyCDDAExtractor 15.3.0.1
#
DISCID=7c0ada0a
DTITLE=Emmanuel - Quisiera
DYEAR=1989
DGENRE=Latin
TTITLE0=La Chica De Humo
TTITLE1=Es Por Ti
TTITLE2=Las Barajas De Ana
TTITLE3=Prueba Otra Vez
TTITLE4=Dos Extraños
TTITLE5=Quisiera
TTITLE6=Luk
TTITLE7=Siento
TTITLE8=Si No Hay Dolor
TTITLE9=La Vida Decidio
EXTD=
EXTT0=
EXTT1=
EXTT2=
EXTT3=
EXTT4=
EXTT5=
EXTT6=
EXTT7=
EXTT8=
EXTT9=
PLAYORDER=
